0
SECTION
2
HEADER
9
$INSUNITS
70
4
9
$ACADVER
1
AC1014
9
$HANDSEED
5
FFFF
0
ENDSEC
0
SECTION
2
TABLES
0
TABLE
2
VPORT
5
8
100
AcDbSymbolTable
0
ENDTAB
0
TABLE
2
LTYPE
5
5
100
AcDbSymbolTable
0
LTYPE
5
14
100
AcDbSymbolTableRecord
100
AcDbLinetypeTableRecord
2
BYBLOCK
70
0
0
LTYPE
5
15
100
AcDbSymbolTableRecord
100
AcDbLinetypeTableRecord
2
BYLAYER
70
0
0
ENDTAB
0
TABLE
2
LAYER
5
2
100
AcDbSymbolTable
70
2
0
LAYER
5
50
100
AcDbSymbolTableRecord
100
AcDbLayerTableRecord
2
0
70
0
6
CONTINUOUS
0
ENDTAB
0
TABLE
2
STYLE
5
3
100
AcDbSymbolTable
70
1
0
STYLE
5
11
100
AcDbSymbolTableRecord
100
AcDbTextStyleTableRecord
2
STANDARD
70
0
0
ENDTAB
0
TABLE
2
VIEW
5
6
100
AcDbSymbolTable
70
0
0
ENDTAB
0
TABLE
2
UCS
5
7
100
AcDbSymbolTable
70
0
0
ENDTAB
0
TABLE
2
APPID
5
9
100
AcDbSymbolTable
70
2
0
APPID
5
12
100
AcDbSymbolTableRecord
100
AcDbRegAppTableRecord
2
ACAD
70
0
0
ENDTAB
0
TABLE
2
DIMSTYLE
5
A
100
AcDbSymbolTable
70
1
0
ENDTAB
0
TABLE
2
BLOCK_RECORD
5
1
100
AcDbSymbolTable
70
1
0
BLOCK_RECORD
5
1F
100
AcDbSymbolTableRecord
100
AcDbBlockTableRecord
2
*MODEL_SPACE
0
BLOCK_RECORD
5
1B
100
AcDbSymbolTableRecord
100
AcDbBlockTableRecord
2
*PAPER_SPACE
0
ENDTAB
0
ENDSEC
0
SECTION
2
BLOCKS
0
BLOCK
5
20
100
AcDbEntity
100
AcDbBlockBegin
2
*MODEL_SPACE
0
ENDBLK
5
21
100
AcDbEntity
100
AcDbBlockEnd
0
BLOCK
5
1C
100
AcDbEntity
100
AcDbBlockBegin
2
*PAPER_SPACE
0
ENDBLK
5
1D
100
AcDbEntity
100
AcDbBlockEnd
0
ENDSEC
0
SECTION
2
ENTITIES
0
LINE
5
100
100
AcDbEntity
8
0
100
AcDbLine
10
-14.091742396925479
20
-27.5
30
0
11
14.09174249235377
21
-27.5
31
0
0
LINE
5
101
100
AcDbEntity
8
0
100
AcDbLine
10
14.09174249235377
20
-27.5
30
0
11
14.09174249235377
21
-18.25
31
0
0
LINE
5
102
100
AcDbEntity
8
0
100
AcDbLine
10
14.09174249235377
20
-18.25
30
0
11
-14.091742396925483
21
-18.25
31
-2.2204460492503131e-15
0
LINE
5
103
100
AcDbEntity
8
0
100
AcDbLine
10
-14.091742396925483
20
-18.25
30
-2.2204460492503131e-15
11
-14.091742396925479
21
-27.5
31
0
0
SPLINE
5
104
100
AcDbEntity
8
0
100
AcDbSpline
70
4
71
3
72
27
73
23
74
0
42
0.000000001
43
0.0000000001
44
0.0000000001
40
-1.1033216129897339
40
-1.1033216129897339
40
-1.1033216129897339
40
-1.1033216129897339
40
-0.97735917983191389
40
-0.97735917983191389
40
-0.61945300130191727
40
-0.61945300130191727
40
-0.34414055627884288
40
-0.34414055627884288
40
-0.13236175241493955
40
-0.13236175241493955
40
0
40
0
40
0
40
0.13236175241493955
40
0.13236175241493955
40
0.34414055627884288
40
0.34414055627884288
40
0.61945300130191727
40
0.61945300130191727
40
0.97735917983191389
40
0.97735917983191389
40
1.1033216129897339
40
1.1033216129897339
40
1.1033216129897339
40
1.1033216129897339
41
1
41
1
41
1
41
1
41
1
41
1
41
1
41
1
41
1
41
1
41
1
41
1
41
1
41
1
41
1
41
1
41
1
41
1
41
1
41
1
41
1
41
1
41
1
10
-11.116488309367966
20
-20.284650651626102
30
0
10
-11.299567569583841
20
-20.330859223106856
30
0
10
-11.477786584267658
20
-20.383075795834525
30
0
10
-12.139392003695828
20
-20.606217170666142
30
4.4408920985006262e-15
10
-12.58017778909667
20
-20.817988277348004
30
0
10
-13.234751131677855
20
-21.276962088026039
30
0
10
-13.478452755763332
20
-21.505225564987754
30
0
10
-13.809575762619627
20
-21.967168629082149
30
-4.4408920985006262e-15
10
-13.919600433557008
20
-22.188429623060479
30
0
10
-14.021389632372902
20
-22.570692871482589
30
4.4408920985006262e-15
10
-14.041804911454465
20
-22.722786111521287
30
0
10
-14.041804911454465
20
-22.875002126794413
30
0
10
-14.041804911454465
20
-23.027218142067536
30
0
10
-14.021389632372902
20
-23.179311382106235
30
4.4408920985006262e-15
10
-13.919600433557008
20
-23.561574630528348
30
0
10
-13.80957576261963
20
-23.782835624506674
30
0
10
-13.478452755763337
20
-24.24477868860107
30
4.4408920985006262e-15
10
-13.234751131677855
20
-24.473042165562788
30
0
10
-12.58017778909667
20
-24.932015976240823
30
0
10
-12.13939200369583
20
-25.143787082922682
30
0
10
-11.47778658426766
20
-25.366928457754302
30
0
10
-11.299567569583841
20
-25.419145030481971
30
0
10
-11.116488309367966
20
-25.465353601962725
30
0
0
SPLINE
5
105
100
AcDbEntity
8
0
100
AcDbSpline
70
4
71
3
72
10
73
6
74
0
42
0.000000001
43
0.0000000001
44
0.0000000001
40
0.82163299268148027
40
0.82163299268148027
40
0.82163299268148027
40
0.82163299268148027
40
0.83370406531999264
40
0.83370406531999264
40
0.85387092058048963
40
0.85387092058048963
40
0.85387092058048963
40
0.85387092058048963
41
1
41
1
41
1
41
1
41
1
41
1
10
-10.646157249165494
20
-20.220991024024158
30
0
10
-10.708101082959217
20
-20.22227584083371
30
0
10
-10.769944944477254
20
-20.226383583431449
30
0
10
-10.930424393567009
20
-20.243992321059459
30
4.4408920985006262e-15
10
-11.021387033764364
20
-20.260647418892596
30
4.4408920985006262e-15
10
-11.116488309367966
20
-20.284650651626102
30
0
0
SPLINE
5
106
100
AcDbEntity
8
0
100
AcDbSpline
70
4
71
3
72
21
73
17
74
0
42
0.000000001
43
0.0000000001
44
0.0000000001
40
0.61983589822214824
40
0.61983589822214824
40
0.61983589822214824
40
0.61983589822214824
40
0.66329512047541994
40
0.66329512047541994
40
0.70676715630853915
40
0.70676715630853915
40
0.73685340940131894
40
0.73685340940131894
40
0.73685340940131894
40
0.75167014917881547
40
0.75167014917881547
40
0.77411263188477031
40
0.77411263188477031
40
0.81289700295391332
40
0.81289700295391332
40
0.82163299268148027
40
0.82163299268148027
40
0.82163299268148027
40
0.82163299268148027
41
1
41
1
41
1
41
1
41
1
41
1
41
1
41
1
41
1
41
1
41
1
41
1
41
1
41
1
41
1
41
1
41
1
10
-8.6376043079062317
20
-22.139729606355655
30
0
10
-8.6376043079062317
20
-21.930557651307222
30
0
10
-8.6816352994966408
20
-21.678431094651422
30
0
10
-8.8295260700955929
20
-21.279794630397287
30
0
10
-8.9594704144946942
20
-21.060859204223519
30
4.4408920985006262e-15
10
-9.19251936073438
20
-20.79035457122863
30
4.4408920985006262e-15
10
-9.3134706934425324
20
-20.678625496667827
30
0
10
-9.4412529315225022
20
-20.587753505292245
30
4.4408920985006262e-15
10
-9.5041825414004197
20
-20.543001284232254
30
0
10
-9.5684226276339519
20
-20.503073614182881
30
4.4408920985006262e-15
10
-9.72492174772648
20
-20.416791736165003
30
0
10
-9.8316174370974014
20
-20.368642132834868
30
0
10
-10.133005268698788
20
-20.264829297038581
30
4.4408920985006262e-15
10
-10.3155770283675
20
-20.231259129629873
30
-4.4408920985006262e-15
10
-10.556450858228246
20
-20.220599568921532
30
0
10
-10.601359077743723
20
-20.220061836401197
30
0
10
-10.646157249165494
20
-20.220991024024158
30
0
0
LINE
5
107
100
AcDbEntity
8
0
100
AcDbLine
10
-8.637604307906237
20
-22.276583112231727
30
4.4408920985006262e-15
11
-8.6376043079062317
21
-22.139729606355655
31
0
0
SPLINE
5
108
100
AcDbEntity
8
0
100
AcDbSpline
70
4
71
3
72
10
73
6
74
0
42
0.000000001
43
0.0000000001
44
0.0000000001
40
0.24545478073127958
40
0.24545478073127958
40
0.24545478073127958
40
0.24545478073127958
40
0.2615737446807842
40
0.2615737446807842
40
0.27769270863028889
40
0.27769270863028889
40
0.27769270863028889
40
0.27769270863028889
41
1
41
1
41
1
41
1
41
1
41
1
10
-11.116488309367966
20
-25.465353601962725
30
0
10
-11.040475762384055
20
-25.484538905675436
30
0
10
-10.968285408030418
20
-25.49869590950145
30
0
10
-10.81139205010774
20
-25.520490906564355
30
0
10
-10.728873214325844
20
-25.5272975646478
30
0
10
-10.646157249165494
20
-25.529013229564669
30
0
0
LINE
5
109
100
AcDbEntity
8
0
100
AcDbLine
10
4.7714143747157323e-08
20
-18.25
30
5.5511151231257827e-15
11
4.7714145967603372e-08
21
-27.5
31
3.3306690739077814e-15
0
LWPOLYLINE
5
110
100
AcDbEntity
8
0
100
AcDbPolyline
90
6
70
1
43
0.0
10
2.8301270666391649
20
-23.366025403784594
10
-0.66506346174671949
20
-25.383974596216319
42
-0.57735026918923915
10
-2.1650634617447531
20
-24.517949192433793
10
-2.16506346174828
20
-20.482050807569003
42
-0.5773502691896738
10
-0.66506346174893094
20
-19.616025403783137
10
2.8301270666379255
20
-21.633974596213182
42
-0.57735026919023191
0
LINE
5
111
100
AcDbEntity
8
0
100
AcDbLine
10
-2.1650634617465245
20
-22.5000000000014
30
4.440892098516782e-15
11
3.3301270666398008
21
-22.499999999997851
31
4.440892098516782e-15
0
LINE
5
112
100
AcDbEntity
8
0
100
AcDbLine
10
-1.6650634617449662
20
-25.383974596216511
30
4.440892098516782e-15
11
1.0825318024448707
21
-20.624999999997513
31
4.440892098516782e-15
0
CIRCLE
5
113
100
AcDbEntity
8
0
100
AcDbCircle
10
4.7714144798947554e-08
20
-22.5
30
4.440892098516782e-15
40
0.75000000000000011
210
0
220
0
230
1
0
LINE
5
114
100
AcDbEntity
8
0
100
AcDbLine
10
-8.637604307906237
20
-22.276583112231727
30
4.4408920985006262e-15
11
-8.6376043079062335
21
-23.4734211413571
31
0
0
LINE
5
115
100
AcDbEntity
8
0
100
AcDbLine
10
-8.637604307906237
20
-23.610274647233126
30
4.4408920985006262e-15
11
-8.6376043079062335
21
-23.4734211413571
31
0
0
SPLINE
5
116
100
AcDbEntity
8
0
100
AcDbSpline
70
4
71
3
72
21
73
17
74
0
42
0.000000001
43
0.0000000001
44
0.0000000001
40
0.277692708630289
40
0.277692708630289
40
0.277692708630289
40
0.277692708630289
40
0.28642869835786061
40
0.28642869835786061
40
0.32521306942700107
40
0.32521306942700107
40
0.34765555213295374
40
0.34765555213295374
40
0.36247229191045027
40
0.36247229191045027
40
0.36247229191045027
40
0.39255854500323001
40
0.39255854500323001
40
0.43603058083634921
40
0.43603058083634921
40
0.47948980308962097
40
0.47948980308962097
40
0.47948980308962097
40
0.47948980308962097
41
1
41
1
41
1
41
1
41
1
41
1
41
1
41
1
41
1
41
1
41
1
41
1
41
1
41
1
41
1
41
1
41
1
10
-10.646157249165494
20
-25.529013229564669
30
0
10
-10.601359077743705
20
-25.529942417187627
30
0
10
-10.556450858228196
20
-25.529404684667291
30
4.4408920985006262e-15
10
-10.315577028367443
20
-25.51874512395894
30
0
10
-10.133005268698712
20
-25.485174956550225
30
0
10
-9.8316174370973926
20
-25.381362120753952
30
0
10
-9.7249217477263468
20
-25.333212517423753
30
0
10
-9.5684226276339377
20
-25.246930639405942
30
0
10
-9.5041825414004233
20
-25.207002969356573
30
4.4408920985006262e-15
10
-9.4412529315225022
20
-25.162250748296579
30
4.4408920985006262e-15
10
-9.3134706934425253
20
-25.071378756920989
30
0
10
-9.1925193607343854
20
-24.959649682360205
30
0
10
-8.959470414494632
20
-24.689145049365241
30
0
10
-8.8295260700955875
20
-24.470209623191543
30
0
10
-8.6816352994965342
20
-24.071573158937127
30
0
10
-8.6376043079062317
20
-23.819446602281356
30
0
10
-8.6376043079062317
20
-23.610274647233123
30
0
0
ENDSEC
0
SECTION
2
OBJECTS
0
DICTIONARY
5
C
100
AcDbDictionary
3
ACAD_GROUP
350
D
3
ACAD_MLINESTYLE
350
17
0
DICTIONARY
5
D
100
AcDbDictionary
0
DICTIONARY
5
1A
330
C
100
AcDbDictionary
0
DICTIONARY
5
17
100
AcDbDictionary
0
ENDSEC
0
EOF
